<svg xmlns="http://www.w3.org/2000/svg" xmlns:xlink="http://www.w3.org/1999/xlink" width="320px" height="132px" viewBox="0 0 320 132">
    <g id="ecec22bc-40d4-468e-9a7a-2bd8f0cb2096">
<g style="">
		<g id="ecec22bc-40d4-468e-9a7a-2bd8f0cb2096-child-0">
<path style="stroke: rgb(193,193,193); stroke-opacity: 1.00; stroke-width: 0; stroke-dasharray: none; stroke-linecap: butt; stroke-dashoffset: 0; stroke-linejoin: miter; stroke-miterlimit: 4; fill: rgb(204,255,0); fill-opacity: 1.00; fill-rule: nonzero; opacity: 1;" transform="matrix(0.099038 0 0 0.101782 62.619924 66.736372) matrix(1 0 0 1 0 0)  translate(-518.852893, -512.240055)" d="M 644.50 850.34 C 635.23 849.24 631.44 846.61 633.03 842.41 C 634.01 839.81 646.10 828.81 664.81 813.51 C 741.31 750.94 784.36 679.85 796.22 596.50 C 798.21 582.48 797.88 539.28 795.66 525.00 C 786.07 463.22 759.55 408.34 718.37 365.08 C 680.18 324.96 629.74 297.15 574.00 285.49 C 550.73 280.62 511.81 278.96 487.50 281.79 C 462.55 284.70 431.03 291.40 411.00 298.05 C 400.42 301.57 373.12 313.67 364.50 318.67 C 340.46 332.61 333.09 337.83 314.55 354.11 C 268.57 394.47 235.73 455.00 224.50 520.03 C 221.26 538.80 220.05 566.96 221.92 580.10 C 226.07 609.26 236.38 631.90 256.38 655.73 C 283.23 687.72 325.97 709.49 378.00 717.67 C 392.35 719.92 435.20 720.21 450.00 718.15 C 510.31 709.77 561.57 685.57 599.12 647.77 C 640.06 606.56 647.86 557.65 621.68 506.50 C 603.86 471.69 573.85 448.54 536.00 440.41 C 524.31 437.89 499.84 437.88 488.00 440.37 C 451.49 448.07 426.79 464.07 407.95 492.24 C 399.77 504.47 395.61 512.96 390.98 526.88 C 382.70 551.78 381.90 566.60 388.15 578.85 C 394.27 590.85 405.29 596.91 422.53 597.75 C 431.39 598.19 433.18 597.98 437.81 595.99 C 443.15 593.69 447.39 589.63 449.22 585.06 C 449.78 583.65 450.84 575.61 451.56 567.18 C 453.55 543.89 457.78 533.14 469.61 521.24 C 476.50 514.31 485.88 509.22 496.97 506.41 C 506.96 503.88 523.96 504.84 534.98 508.56 C 551.03 513.97 564.54 525.45 571.38 539.50 C 576.14 549.25 577.35 555.44 576.76 566.87 C 575.87 583.84 569.46 596.61 554.04 612.08 C 538.63 627.56 519.59 638.84 495.00 647.06 C 468.20 656.02 436.73 660.23 412.49 658.10 C 372.71 654.60 344.67 642.18 320.00 617.12 C 304.09 600.97 295.83 586.28 290.27 564.29 C 287.84 554.64 287.88 524.21 290.34 511.00 C 298.35 468.09 326.57 424.53 367.80 391.46 C 393.09 371.17 415.98 359.34 444.09 352.05 C 478.92 343.00 521.04 342.47 558.00 350.61 C 585.89 356.75 619.93 370.99 642.00 385.77 C 694.69 421.03 731.95 479.04 740.49 539.12 C 742.43 552.76 742.42 580.69 740.47 595.70 C 734.51 641.56 715.66 681.20 682.05 718.50 C 656.52 746.83 616.96 774.96 569.00 798.88 C 546.71 810.00 539.79 812.87 516.50 820.69 C 484.54 831.41 460.39 836.59 428.61 839.51 C 409.99 841.22 368.86 841.47 352.00 839.97 C 325.54 837.62 295.15 831.68 279.00 825.71 C 273.77 823.78 265.23 820.73 260.00 818.94 C 239.31 811.85 211.68 795.93 190.00 778.62 C 179.73 770.42 158.07 748.51 148.85 737.00 C 137.56 722.90 127.72 707.39 119.04 690.00 C 103.85 659.60 96.43 634.63 90.34 593.50 C 87.64 575.23 87.84 534.87 90.75 513.50 C 100.62 440.87 124.90 383.89 170.15 327.19 C 182.85 311.27 212.57 281.60 229.00 268.45 C 274.64 231.91 320.63 208.13 375.82 192.52 C 407.83 183.47 434.57 178.75 476.00 174.85 C 496.18 172.95 555.33 173.25 576.00 175.35 C 662.10 184.13 733.35 207.43 790.00 245.31 C 829.21 271.54 859.78 301.20 884.33 336.82 C 927.11 398.88 949.42 471.29 949.27 547.50 C 949.21 577.58 945.77 602.83 937.88 631.29 C 929.94 659.89 914.65 692.84 897.17 719.00 C 851.04 788.08 785.79 832.14 708.42 846.49 C 689.49 850.00 657.70 851.91 644.50 850.34 Z" stroke-linecap="round"></path>
</g>
</g>
</g>
<g style="" id="b50190a9-e77e-4b70-b822-5c6ed69f645e">
<g style=""><path d="M-108.36000 -29.18020L-99.05000 -29.18020L-90.93000 -2.16020C-90.16000 0.63980 -89.39000 3.50980 -88.62000 7.98980C-87.78000 3.43980 -87.01000 0.77980 -86.10000 -2.16020L-78.05000 -29.18020L-68.18000 -29.18020L-60.27000 -2.16020C-59.43000 0.70980 -58.66000 3.64980 -57.82000 7.98980C-56.84000 3.22980 -56.14000 0.49980 -55.37000 -2.09020L-47.11000 -29.18020L-38.01000 -29.18020L-53.55000 21.98980L-62.23000 21.98980L-73.15000 -15.25020L-84.28000 21.98980L-93.10000 21.98980Z" fill="rgb(204,255,0)" fill-opacity="1.00" transform="matrix(0.80876 0 0 0.80876 201.248889 68.218857) translate(0 0)"></path><path d="M-33.74000 21.98980L-33.74000 -29.18020L-14.21000 -29.18020C-2.59000 -29.18020 4.20000 -23.30020 4.20000 -13.22020C4.20000 -6.36020 0.98000 -1.46020 -5.04000 0.98980L4.69000 21.98980L-5.11000 21.98980L-13.79000 2.87980L-24.78000 2.87980L-24.78000 21.98980ZM-24.78000 -5.03020L-14.21000 -5.03020C-8.54000 -5.03020 -5.18000 -8.04020 -5.18000 -13.22020C-5.18000 -18.33020 -8.54000 -21.20020 -14.21000 -21.20020L-24.78000 -21.20020Z" fill="rgb(204,255,0)" fill-opacity="1.00" transform="matrix(0.80876 0 0 0.80876 201.248889 68.218857) translate(0 0)"></path><path d="M10.71000 21.98980L10.71000 -29.18020L28.63000 -29.18020C43.75000 -29.18020 54.18000 -18.75020 54.18000 -3.49020C54.18000 11.55980 43.96000 21.98980 29.12000 21.98980ZM19.67000 -20.92020L19.67000 13.72980L28.28000 13.72980C38.50000 13.72980 44.73000 7.14980 44.73000 -3.49020C44.73000 -14.34020 38.36000 -20.92020 27.79000 -20.92020Z" fill="rgb(204,255,0)" fill-opacity="1.00" transform="matrix(0.80876 0 0 0.80876 201.248889 68.218857) translate(0 0)"></path><path d="M106.75000 -3.63020C106.75000 11.90980 96.53000 22.82980 81.83000 22.82980C67.20000 22.82980 57.12000 11.97980 57.12000 -3.63020C57.12000 -19.17020 67.27000 -30.09020 81.90000 -30.09020C96.53000 -30.09020 106.75000 -19.24020 106.75000 -3.63020ZM97.30000 -3.63020C97.30000 -14.55020 91.28000 -21.48020 81.90000 -21.48020C72.52000 -21.48020 66.50000 -14.55020 66.50000 -3.63020C66.50000 7.28980 72.52000 14.21980 81.90000 14.21980C91.28000 14.21980 97.30000 7.14980 97.30000 -3.63020Z" fill="rgb(204,255,0)" fill-opacity="1.00" transform="matrix(0.80876 0 0 0.80876 201.248889 68.218857) translate(0 0)"></path></g></g>

  </svg>